<!-- Generated by IcoMoon.io -->
<svg version="1.1" xmlns="http://www.w3.org/2000/svg" width="114" height="32" viewBox="0 0 114 32">
<title>stars</title>
<path fill="#fed141" d="M11 5l3.233 6.55 7.229 1.050-5.231 5.099 1.235 7.2-6.466-3.399-6.466 3.399 1.235-7.2-5.231-5.099 7.229-1.050 3.233-6.55z"></path>
<path fill="#fed141" d="M34 5l3.233 6.55 7.229 1.050-5.231 5.099 1.235 7.2-6.466-3.399-6.466 3.399 1.235-7.2-5.231-5.099 7.229-1.050 3.233-6.55z"></path>
<path fill="#fed141" d="M57 5l3.233 6.55 7.229 1.050-5.231 5.099 1.235 7.2-6.466-3.399-6.466 3.399 1.235-7.2-5.231-5.099 7.229-1.050 3.233-6.55z"></path>
<path fill="#fed141" d="M80 5l3.233 6.55 7.229 1.050-5.231 5.099 1.235 7.2-6.466-3.399-6.466 3.399 1.235-7.2-5.231-5.099 7.229-1.050 3.233-6.55z"></path>
<path fill="#fed141" d="M103 5l3.233 6.55 7.229 1.050-5.231 5.099 1.235 7.2-6.466-3.399-6.466 3.399 1.235-7.2-5.231-5.099 7.229-1.050 3.233-6.55z"></path>
</svg>
