<svg aria-hidden="true" style="position: absolute; width: 0; height: 0; overflow: hidden;" version="1.1" xmlns="http://www.w3.org/2000/svg" xmlns:xlink="http://www.w3.org/1999/xlink">
<defs>
<symbol id="icon-la_award" viewBox="0 0 32 32">
<path  d="M16 3.001c-0.625 0-1.246 0.21-1.781 0.594l-1.656 1.156-1.908 0.25h-0.031l-0.031 0.031c-0.626 0.141-1.199 0.457-1.652 0.911s-0.769 1.027-0.911 1.652l-0.030 0.031v0.031l-0.25 1.938-1.156 1.5-0.032 0.031v0.031c-0.699 1.117-0.73 2.559 0.032 3.625l1.187 1.656 0.313 1.72-3.219 4.905-1.031 1.532h4.781l1.156 2.687 0.719 1.719 1.031-1.563 3.156-4.75c0.848 0.348 1.805 0.38 2.626 0l3.156 4.75 1.031 1.563 0.719-1.719 1.156-2.687h4.781l-1.031-1.532-3.125-4.749 0.25-1.875 1.156-1.656 0.032-0.031v-0.031c0.699-1.117 0.73-2.528-0.032-3.594l-1.156-1.657-0.375-1.875h0.031c-0.004-0.024-0.027-0.040-0.031-0.063-0.18-1.308-1.215-2.37-2.531-2.531h-0.032l-1.875-0.25-1.656-1.156c-0.517-0.379-1.14-0.587-1.781-0.594zM16 5.032c0.23 0 0.457 0.070 0.625 0.188l2 1.437 0.25 0.032 2.188 0.312h0.030c0.45 0.050 0.762 0.363 0.813 0.813v0.062l0.407 2.219 0.030 0.219 0.157 0.187 1.281 1.781c0.239 0.332 0.27 0.895-0.031 1.375l-1.406 1.969-0.032 0.25-0.312 2.188v0.030c-0.017 0.156-0.070 0.306-0.156 0.438l-0.063 0.032v0.030c-0.149 0.178-0.362 0.291-0.593 0.313h-0.063l-2.281 0.407-0.25 0.030-0.188 0.157-1.781 1.281c-0.332 0.239-0.926 0.27-1.406-0.031l-1.625-1.25-0.188-0.156-0.281-0.032-2.188-0.312h-0.030c-0.141-0.012-0.278-0.059-0.398-0.135s-0.219-0.18-0.29-0.303c-0.066-0.115-0.109-0.243-0.125-0.375v-0.062l-0.406-2.281-0.032-0.25-0.156-0.188-1.281-1.781c-0.239-0.332-0.27-0.926 0.031-1.406l1.25-1.625 0.156-0.188 0.031-0.281 0.282-2.094c0.004-0.015 0.027-0.015 0.031-0.031 0.062-0.241 0.188-0.46 0.364-0.636s0.396-0.301 0.636-0.364c0.016-0.004 0.016-0.027 0.031-0.031l2.094-0.282 0.25-0.030 0.219-0.157 1.781-1.281c0.168-0.117 0.395-0.188 0.625-0.188zM22.906 20.251l1.532 2.344h-2.408l-0.25 0.625-0.687 1.593-2.125-3.25 0.468-0.343 1.97-0.344v0.031c0.023-0.004 0.038-0.027 0.062-0.031 0.526-0.076 1.024-0.292 1.438-0.625zM9.094 20.282c0.434 0.395 0.98 0.646 1.562 0.719h0.031l1.907 0.25 0.437 0.344-2.125 3.218-0.687-1.593-0.25-0.625h-2.406l1.531-2.313z"></path>
</symbol>
<symbol id="icon-la_fill-drip" viewBox="0 0 32 32">
<path  d="M11.3 3.301l-1.4 1.4 1.8 1.8-6.9 6.9c-0.285 0.281-0.512 0.615-0.666 0.985s-0.234 0.765-0.234 1.165c0 0.4 0.080 0.796 0.234 1.165s0.381 0.704 0.666 0.984l6.4 6.4c1.2 1.2 3.1 1.2 4.3 0l8.3-8.3-12.5-12.5zM13.1 7.901l7.9 7.9-2.2 2.2h-10.901l-1.699-1.7c-0.4-0.4-0.4-1.1 0-1.5l6.9-6.9zM25 19.301l-0.8 1.2c0 0-0.5 0.8-1.1 1.7-0.3 0.5-0.5 0.9-0.7 1.4s-0.4 0.8-0.4 1.4c0 1.6 1.4 3 3 3s3-1.4 3-3c0-0.6-0.2-1-0.4-1.5s-0.5-1-0.7-1.4-1.1-1.7-1.1-1.7l-0.8-1.1z"></path>
</symbol>
<symbol id="icon-la_house-damage" viewBox="0 0 32 32">
<path  d="M16 2.591l-0.72 0.69-13 13 1.44 1.44 1.28-1.28v11.56h8.83l2.17-6h-3.62l3.63-6.21-0.010 4.21h3.55l-1.61 8h9.060v-11.56l1.28 1.28 1.44-1.44-13-13-0.72-0.69zM16 5.441l9 9v11.56h-4.62l1.62-8h-4v-6h-2.1l-5.9 10.11v1.89h3.15l-0.72 2h-5.43v-11.56l9-9z"></path>
</symbol>
</defs>
</svg>
